<?xml version="1.0" encoding="UTF-8" standalone="no"?>
<svg width="62px" height="61px" viewBox="0 0 62 61" version="1.1" xmlns="http://www.w3.org/2000/svg" xmlns:xlink="http://www.w3.org/1999/xlink">
    <!-- Generator: Sketch 48 (47235) - http://www.bohemiancoding.com/sketch -->
    <title>微信转账-icon-绿色@2x</title>
    <desc>Created with Sketch.</desc>
    <defs></defs>
    <g id="5-2-交易大厅-购买UET" stroke="none" stroke-width="1" fill="none" fill-rule="evenodd" transform="translate(-278.000000, -539.000000)">
        <g id="第二" transform="translate(0.000000, 424.000000)">
            <g id="微信转账" transform="translate(277.000000, 116.000000)">
                <g id="微信转账-icon-绿色" transform="translate(1.000000, 0.000000)">
                    <circle id="Oval-4" fill="#19D100" cx="30" cy="30" r="30"></circle>
                    <g id="微信" transform="translate(10.000000, 14.000000)" fill="#FFFFFF" fill-rule="nonzero">
                        <path d="M27.0704251,9.68136264 C27.5294855,9.68136264 27.9822819,9.716 28.436689,9.76496703 C27.2124832,4.16342857 21.1195078,0.00312087912 14.1607606,0.00312087912 C6.38384787,0.00312087912 0.0130201342,5.20975824 0.0130201342,11.8243956 C0.0130201342,15.6411868 2.13114094,18.7751209 5.67337808,21.2095824 L4.26022371,25.3898901 L9.20697987,22.9553407 C10.9754362,23.2959121 12.3939597,23.6502418 14.1607606,23.6502418 C14.6050559,23.6502418 15.0453691,23.6304176 15.4794631,23.5980659 C15.2055034,22.6684835 15.0422819,21.6958681 15.0422819,20.681978 C15.0454139,14.6101538 20.3513199,9.68136264 27.0704251,9.68136264 Z M19.4651902,5.91375824 C20.5339597,5.91375824 21.2366443,6.60408791 21.2366443,7.6487033 C21.2366443,8.68958242 20.533915,9.38685714 19.4651902,9.38685714 C18.4080537,9.38685714 17.3439374,8.68958242 17.3439374,7.64874725 C17.3439374,6.60105495 18.4056823,5.91375824 19.4651902,5.91375824 Z M9.56380313,9.38681319 C8.50201342,9.38681319 7.43315436,8.68953846 7.43315436,7.6487033 C7.43315436,6.604 8.50201342,5.91371429 9.56380313,5.91371429 C10.6255928,5.91371429 11.3306488,6.60101099 11.3306488,7.64865934 C11.3306488,8.68953846 10.6256376,9.38681319 9.56380313,9.38681319 Z" id="Shape"></path>
                        <path d="M39.9870246,20.5146374 C39.9870246,14.9584176 34.3251007,10.4298901 27.9667562,10.4298901 C21.2336018,10.4298901 15.9347204,14.9615385 15.9347204,20.5146374 C15.9347204,26.0862418 21.236689,30.6008791 27.9667562,30.6008791 C29.3768233,30.6008791 30.7977181,30.2542418 32.2123937,29.905978 L36.0911409,31.9968791 L35.0277405,28.5221978 C37.8680984,26.4252747 39.9870246,23.6501978 39.9870246,20.5146374 Z M24.064519,18.7750769 C23.3618792,18.7750769 22.6498434,18.0879121 22.6498434,17.3852747 C22.6498434,16.6934066 23.3619239,15.996967 24.064519,15.996967 C25.1388367,15.996967 25.835302,16.6934066 25.835302,17.3852747 C25.835302,18.0879121 25.1388367,18.7750769 24.064519,18.7750769 Z M31.8470246,18.7750769 C31.1505593,18.7750769 30.4400895,18.0879121 30.4400895,17.3852747 C30.4400895,16.6934066 31.1474273,15.996967 31.8470246,15.996967 C32.9119463,15.996967 33.6177629,16.6934066 33.6177629,17.3852747 C33.6177629,18.0879121 32.9119016,18.7750769 31.8470246,18.7750769 Z" id="Shape"></path>
                    </g>
                    <g id="勾-绿色" transform="translate(45.000000, 0.000000)" fill-rule="nonzero">
                        <path d="M8.00350286,0.00884 C3.58796,0.00884 0.00844,3.58836 0.00844,8.00390286 C0.00844,12.4195371 3.58796,15.9990571 8.00350286,15.9990571 C12.4191371,15.9990571 15.9987486,12.4195371 15.9987486,8.00390286 C15.9987486,3.58836 12.4192286,0.00884 8.00350286,0.00884" id="Shape" stroke="#FFFFFF" fill="#19D100"></path>
                        <path d="M12.5893771,5.93012 L7.41854286,11.1010457 L7.41845143,11.1011371 C7.18503952,11.3344756 6.82337679,11.3804589 6.539,11.2129543 C6.48653751,11.181855 6.43818948,11.1442885 6.39509143,11.1011371 L6.395,11.1010457 L3.41781143,8.12385714 C3.14280719,7.83999273 3.14637973,7.38800361 3.42583669,7.10852168 C3.70529365,6.82903976 4.15728244,6.82542683 4.44117143,7.10040571 L6.90672571,9.56596 L11.5659257,4.90666857 C11.8495731,4.63018149 12.3027874,4.63307812 12.5828775,4.91316822 C12.8629676,5.19325832 12.8658642,5.64647265 12.5893771,5.93012" id="Shape" fill="#FFFFFF"></path>
                    </g>
                </g>
            </g>
        </g>
    </g>
</svg>