<?xml version="1.0" encoding="UTF-8" standalone="no"?>
<svg width="60px" height="60px" viewBox="0 0 60 60" version="1.1" xmlns="http://www.w3.org/2000/svg" xmlns:xlink="http://www.w3.org/1999/xlink">
    <!-- Generator: Sketch 48 (47235) - http://www.bohemiancoding.com/sketch -->
    <title>支付宝-icon-灰色@2x</title>
    <desc>Created with Sketch.</desc>
    <defs></defs>
    <g id="5-1-交易大厅-购买UET" stroke="none" stroke-width="1" fill="none" fill-rule="evenodd" transform="translate(-157.000000, -540.000000)">
        <g id="第二" transform="translate(0.000000, 424.000000)">
            <g id="支付宝转账" transform="translate(149.000000, 116.000000)">
                <g id="支付宝-icon-灰色" transform="translate(8.000000, 0.000000)">
                    <circle id="Oval-4" fill="#CFCFCF" cx="30" cy="30" r="30"></circle>
                    <path d="M38.5921609,26.0914572 L38.7277634,25.5819167 C38.8633658,25.060441 38.9880838,24.3424938 39.1014637,23.8044925 L30.485493,23.8044925 L30.485493,21.599697 L41.3178154,21.599697 L41.3178154,19.4164767 L30.4904818,19.4164767 L30.4904818,15 L26.1375979,15 L26.1375979,19.4164767 L15.3157065,19.4164767 L15.3157065,21.599697 L26.1375979,21.599697 L26.1375979,23.8044925 L17.4839851,23.8044925 L17.4839851,25.9881719 L33.644259,25.9881719 C33.2651164,27.9675761 32.5385775,29.9579973 31.5902675,31.6872217 C30.8383315,31.4342876 23.9820179,29.3929123 19.5107654,29.3929123 C15.9343076,29.3929123 10,32.16417 10,37.2159656 C10,42.1966092 13.4140977,45 19.5107654,45 C25.363893,45 29.6727854,42.0377794 33.1562716,36.7881352 C39.7894534,39.7113369 45.9509745,42.9384267 50,44.7860848 L50,37.8742368 C46.9813717,37.1668477 41.1989932,35.0437623 35.6928083,33.102459 C36.884205,31.0174743 37.8765065,28.6749652 38.5921609,26.0914572 Z M19.5919455,41.983153 C16.5733172,41.983153 11.5714464,40.9406607 11.5714464,37.2159656 C11.5773421,33.9737273 16.0046032,32.3289673 19.5919455,32.3289673 C23.412397,32.3289673 26.2958764,33.9195599 29.2659781,35.130981 C26.1380515,38.9832907 23.0055896,41.983153 19.5919455,41.983153 Z" id="Shape" fill="#FFFFFF" fill-rule="nonzero"></path>
                </g>
            </g>
        </g>
    </g>
</svg>