<?xml version="1.0" encoding="UTF-8" standalone="no"?>
<svg width="60px" height="60px" viewBox="0 0 60 60" version="1.1" xmlns="http://www.w3.org/2000/svg" xmlns:xlink="http://www.w3.org/1999/xlink">
    <!-- Generator: Sketch 48 (47235) - http://www.bohemiancoding.com/sketch -->
    <title>银行转账-icon-紫色@2x</title>
    <desc>Created with Sketch.</desc>
    <defs></defs>
    <g id="5-2-交易大厅-购买UET" stroke="none" stroke-width="1" fill="none" fill-rule="evenodd" transform="translate(-28.000000, -540.000000)">
        <g id="第二" transform="translate(0.000000, 424.000000)">
            <g id="银行卡转账" transform="translate(20.000000, 116.000000)">
                <g id="银行转账-icon-紫色" transform="translate(8.000000, 0.000000)">
                    <circle id="Oval-4" fill="#B565FF" cx="30" cy="30" r="30"></circle>
                    <g id="银行卡转账" transform="translate(12.000000, 18.000000)" fill="#FFFFFF" fill-rule="nonzero">
                        <path d="M33.5594805,0.0140460258 L2.44051946,0.0140460258 C1.12394803,0.0140460258 0.0467532,1.09278191 0.0467532514,2.41123684 L0.0467532514,21.5887632 C0.0467532514,22.9072181 1.12394808,23.985954 2.44051946,23.985954 L33.5594805,23.985954 C34.876052,23.985954 35.9532468,22.9072181 35.9532467,21.5887632 L35.9532467,2.41123684 C35.9532467,1.09278191 34.8760519,0.0140460258 33.5594805,0.0140460258 Z M2.44051946,1.21264146 L33.5594805,1.21264146 C34.2177663,1.21264146 34.7563636,1.75200937 34.7563636,2.41123684 L34.7563636,6.6063207 L1.24363635,6.6063207 L1.24363635,2.41123684 C1.24363635,1.75200937 1.78223374,1.21264146 2.44051946,1.21264146 Z M33.5594805,22.7873585 L2.44051946,22.7873585 C1.78223374,22.7873585 1.24363635,22.2479906 1.24363635,21.5887632 L1.24363635,11.4007023 L34.7563636,11.4007023 L34.7563636,21.5887632 C34.7563636,22.2479906 34.2177663,22.7873585 33.5594805,22.7873585 Z" id="Shape"></path>
                        <path d="M5.3728831,17.6333984 L7.76664936,17.6333984 C8.24540261,17.6333984 8.66431167,18.0529068 8.66431167,18.5323449 C8.66431167,19.0117831 8.24540256,19.4312915 7.76664936,19.4312915 L5.3728831,19.4312915 C4.89412985,19.4312915 4.47522079,19.011783 4.47522079,18.5323449 C4.47522079,18.0529068 4.8941299,17.6333984 5.3728831,17.6333984 Z M13.0927792,17.6333984 L18.4787533,17.6333984 C18.9575065,17.6333984 19.3764156,18.0529068 19.3764156,18.5323449 C19.3764156,19.0117831 18.9575065,19.4312915 18.4787533,19.4312915 L13.0927792,19.4312915 C12.614026,19.4312915 12.1951169,19.011783 12.1951169,18.5323449 C12.1951169,18.0529068 12.614026,17.6333984 13.0927792,17.6333984 Z" id="Shape"></path>
                    </g>
                </g>
            </g>
        </g>
    </g>
</svg>