<?xml version="1.0" encoding="UTF-8" standalone="no"?>
<svg width="30px" height="30px" viewBox="0 0 30 30" version="1.1" xmlns="http://www.w3.org/2000/svg" xmlns:xlink="http://www.w3.org/1999/xlink">
    <!-- Generator: Sketch 48 (47235) - http://www.bohemiancoding.com/sketch -->
    <title>左边-箭头@2x</title>
    <desc>Created with Sketch.</desc>
    <defs></defs>
    <g id="3-2帮助中心" stroke="none" stroke-width="1" fill="none" fill-rule="evenodd" transform="translate(-611.000000, -879.000000)">
        <g id="内容" transform="translate(360.000000, 540.000000)" fill="#86A5F8" fill-rule="nonzero">
            <g id="左边-箭头" transform="translate(266.000000, 354.000000) scale(-1, 1) translate(-266.000000, -354.000000) translate(251.000000, 339.000000)">
                <path d="M14.9708631,1.4274296e-15 C6.68633929,1.4274296e-15 0,6.71895833 0,14.9708631 C0,23.2227679 6.71895833,29.9417262 14.9708631,29.9417262 C23.2227679,29.9417262 29.9417262,23.2227679 29.9417262,14.9708631 C29.9417262,6.71895833 23.2553869,0 14.9708631,1.4274296e-15 Z M20.2547024,15.7862798 L12.8181845,23.2554167 C12.5899107,23.4836905 12.2963393,23.5815774 12.0027976,23.5815774 C11.709256,23.5815774 11.4156845,23.4836905 11.1874107,23.2554167 C10.7307738,22.7987798 10.730744,22.0812202 11.1874107,21.6245536 L17.8411607,14.9708036 L11.2200595,8.41494048 C10.7634226,7.95830357 10.7633929,7.24074405 11.2200595,6.81678571 C11.6766964,6.36014881 12.394256,6.36011905 12.8182143,6.81678571 L20.2547619,14.1880655 C20.4830357,14.4163393 20.5809226,14.6772917 20.5809226,15.0034524 C20.5809226,15.2644048 20.4830357,15.5579167 20.2547619,15.78625 L20.2547024,15.7862798 Z" id="Shape"></path>
            </g>
        </g>
    </g>
</svg>